<svg width="553" height="367" viewBox="0 0 553 367" fill="none" xmlns="http://www.w3.org/2000/svg">
<path d="M223.435 26.1408C180.346 26.1408 139.832 25.8804 99.3171 26.1929C34.2285 26.6878 35.1907 16.4772 35.5548 89.4362C35.7368 124.991 35.5808 160.546 35.5808 196.075C38.2332 196.465 40.8856 196.83 43.538 197.221C51.9634 168.933 60.6228 140.698 68.7882 112.332C78.9558 77.0897 78.7998 77.0376 115.674 77.0376C192.49 77.0376 269.307 77.1157 346.123 76.8813C353.925 76.8553 365.054 77.819 368.981 73.3389C391.501 47.5519 420.963 52.9176 449.334 52.7353C473.336 52.6051 497.338 52.4748 521.34 52.7874C546.876 53.1521 557.876 66.9051 550.985 91.8326C527.737 175.784 503.501 259.474 480.331 343.425C474.896 363.117 461.504 367.102 444.107 366.998C396.91 366.712 349.686 366.555 302.488 366.503C214.464 366.425 126.44 366.555 38.4152 366.425C2.00929 366.373 -0.149063 364.003 0.00696217 328.865C0.553051 232.749 0.943114 136.582 1.43719 40.3888C1.61922 5.64148 7.23614 0.0933661 42.1078 0.0412711C91.7239 -0.0368713 141.34 0.0152237 190.93 0.0412711C205.908 0.0412711 219.873 1.63017 223.435 26.1408Z" fill="#01409F"/>
</svg>
