<svg width="51" height="52" viewBox="0 0 51 52" fill="none" xmlns="http://www.w3.org/2000/svg">
<path d="M0.0208559 25.9155C0.0208559 22.1821 -0.0319303 18.4438 0.0304534 14.7104C0.164818 7.51229 5.9713 1.29311 13.131 0.616489C13.8221 0.549307 14.5227 0.515716 15.2137 0.515716C22.2391 0.510917 29.2644 0.467728 36.2898 0.525313C41.3333 0.568502 45.3738 2.70394 48.325 6.78768C50.1438 9.30702 50.9931 12.1671 50.9979 15.2767C51.0027 22.5132 51.0075 29.7497 50.9979 36.9862C50.9883 44.3523 45.0955 50.7682 37.7486 51.4112C37.096 51.4688 36.4433 51.4976 35.7907 51.4976C28.8277 51.5024 21.8647 51.5072 14.9018 51.5024C7.56928 51.4976 1.58525 46.5405 0.241598 39.3184C0.0688434 38.3922 0.0256547 37.4325 0.0208559 36.4871C-0.00313779 32.9648 0.0112584 29.4378 0.0112584 25.9155C0.0160572 25.9155 0.0208559 25.9155 0.0208559 25.9155ZM25.4542 5.34805C21.8024 5.34805 18.1553 5.33366 14.5035 5.35285C9.01851 5.38164 4.71883 9.71011 4.71883 15.1807C4.71883 22.5036 4.71403 29.8217 4.71883 37.1445C4.72363 42.4856 8.96092 46.8572 14.3163 46.8956C21.7832 46.9532 29.2548 46.958 36.7217 46.8908C42.0819 46.8428 46.2952 42.4664 46.2952 37.111C46.2952 29.8313 46.2904 22.5516 46.2856 15.2767C46.2808 9.62374 42.0003 5.34805 36.3474 5.34325C32.7147 5.34805 29.0821 5.34805 25.4542 5.34805Z" fill="black"/>
<path d="M12.2913 26.1363C12.2817 18.8614 18.1794 12.9109 25.3967 12.9061C32.7675 12.9013 38.742 18.7798 38.7468 26.0355C38.7516 33.4736 32.8539 39.3568 25.3967 39.352C18.1746 39.3568 12.2961 33.4256 12.2913 26.1363ZM25.483 34.6876C30.229 34.6924 34.0728 30.8678 34.0776 26.1411C34.0824 21.4143 30.2386 17.5801 25.4974 17.5753C20.8091 17.5705 16.9509 21.3903 16.9557 26.0307C16.9557 30.863 20.7179 34.6828 25.483 34.6876Z" fill="black"/>
<path d="M39.1498 9.3358C40.863 9.32621 42.2786 10.713 42.2786 12.3974C42.2786 14.0914 40.8582 15.507 39.1738 15.4974C37.4895 15.4926 36.117 14.1346 36.0978 12.4502C36.0786 10.7178 37.4223 9.3454 39.1498 9.3358Z" fill="black"/>
</svg>
