<svg width="64" height="42" viewBox="0 0 64 42" fill="none" xmlns="http://www.w3.org/2000/svg">
<path d="M0.003479 41.085C0.003479 27.685 0.003479 14.325 0.003479 0.92502C0.213479 0.91502 0.403479 0.89502 0.583479 0.89502C5.65348 0.89502 10.7235 0.89502 15.7935 0.89502C18.6035 0.89502 21.2735 1.43502 23.7335 2.85502C28.9635 5.88502 29.7935 11.575 28.1635 15.725C27.4735 17.485 26.2535 18.835 24.7235 19.915C24.5535 20.035 24.3935 20.155 24.2135 20.285C24.2635 20.345 24.2835 20.405 24.3335 20.425C28.2735 22.865 30.1635 26.415 29.7035 31.025C29.2635 35.445 26.6435 38.295 22.6335 39.965C20.7635 40.745 18.7835 41.085 16.7635 41.095C11.2935 41.105 5.83348 41.105 0.363479 41.105C0.263479 41.105 0.163479 41.095 0.003479 41.085ZM8.28348 33.945C8.44348 33.955 8.55348 33.975 8.67348 33.975C11.1135 33.975 13.5535 33.985 15.9835 33.965C16.4935 33.965 17.0035 33.915 17.5035 33.825C19.8135 33.415 21.2935 31.915 21.4635 29.855C21.6735 27.205 20.5935 25.335 18.2735 24.555C17.4335 24.275 16.5035 24.135 15.6135 24.105C13.3435 24.045 11.0735 24.085 8.81348 24.085C8.65348 24.085 8.48348 24.105 8.29348 24.115C8.28348 27.395 8.28348 30.635 8.28348 33.945ZM8.28348 16.895C8.40348 16.905 8.49348 16.925 8.58348 16.925C10.9235 16.925 13.2735 16.955 15.6135 16.895C16.3935 16.875 17.1935 16.695 17.9335 16.435C19.6435 15.825 20.4435 14.525 20.5035 12.745C20.5635 10.985 19.9935 9.49502 18.3135 8.73502C17.4935 8.36502 16.5535 8.11502 15.6535 8.07502C13.2935 7.98502 10.9335 8.03502 8.57348 8.03502C8.48348 8.03502 8.39348 8.06502 8.29348 8.07502C8.28348 11.025 8.28348 13.945 8.28348 16.895Z" fill="black"/>
<path d="M62.6635 31.035C61.8135 33.675 60.3235 35.835 58.2235 37.585C55.8535 39.555 53.0835 40.485 50.0435 40.705C46.1035 40.985 42.4335 40.205 39.2335 37.785C35.8135 35.205 34.0135 31.675 33.5035 27.475C33.1135 24.355 33.3235 21.275 34.5035 18.325C36.6135 13.025 40.6135 10.115 46.2035 9.33503C48.9535 8.95503 51.6935 9.13503 54.3035 10.145C59.6835 12.235 62.6035 16.275 63.3135 21.915C63.5135 23.515 63.3335 25.155 63.3435 26.775C63.3435 27.295 63.1435 27.465 62.5935 27.465C55.3735 27.445 48.1435 27.455 40.9235 27.455C40.7035 27.455 40.4735 27.455 40.1735 27.455C40.2035 27.755 40.2135 28.015 40.2535 28.265C41.0835 32.785 44.9235 35.615 49.5135 35.145C52.1735 34.865 54.1935 33.665 55.4835 31.295C55.5635 31.145 55.7735 30.965 55.9335 30.965C58.1235 30.945 60.3235 30.955 62.5135 30.965C62.5335 30.955 62.5735 30.985 62.6635 31.035ZM56.5735 22.055C56.7135 20.625 55.9735 18.665 54.8435 17.425C52.1335 14.445 47.0535 13.845 43.7235 16.115C41.6435 17.535 40.5835 19.555 40.2135 22.055C45.7035 22.055 51.1435 22.055 56.5735 22.055Z" fill="black"/>
<path d="M40.7535 5.41503C40.7535 4.21503 40.7535 3.04503 40.7535 1.84503C45.8535 1.84503 50.9235 1.84503 56.0435 1.84503C56.0435 3.02503 56.0435 4.19503 56.0435 5.41503C50.9535 5.41503 45.8835 5.41503 40.7535 5.41503Z" fill="black"/>
</svg>
